<svg width="24" height="24" viewBox="0 0 24 24" fill="none" xmlns="http://www.w3.org/2000/svg">
<path d="M15.1998 13C15.1998 14.7673 13.7671 16.2 11.9998 16.2C10.2325 16.2 8.7998 14.7673 8.7998 13C8.7998 11.2327 10.2325 9.79999 11.9998 9.79999C13.7671 9.79999 15.1998 11.2327 15.1998 13Z" fill="#1D2327"/>
<path fill-rule="evenodd" clip-rule="evenodd" d="M7.17 5L9 3H15L16.83 5H20C21.1 5 22 5.9 22 7V19C22 20.1 21.1 21 20 21H4C2.9 21 2 20.1 2 19V7C2 5.9 2.9 5 4 5H7.17ZM7 13C7 15.76 9.24 18 12 18C14.76 18 17 15.76 17 13C17 10.24 14.76 8 12 8C9.24 8 7 10.24 7 13Z" fill="#1D2327"/>
</svg>
