<svg width="24" height="24" viewBox="0 0 24 24" fill="none" xmlns="http://www.w3.org/2000/svg">
<path fill-rule="evenodd" clip-rule="evenodd" d="M6 5.88889C6 5.39797 6.39797 5 6.88889 5H20.1111C20.602 5 21 5.39797 21 5.88889V21.1111C21 21.602 20.602 22 20.1111 22H6.88889C6.39797 22 6 21.602 6 21.1111V5.88889ZM7.33333 20.6667V6.33333H19.6667V20.6667H7.33333Z" fill="#1D2327"/>
<path d="M4.33333 17.6667V3.33333H16.6667V4H18V2.88889C18 2.39797 17.602 2 17.1111 2H3.88889C3.39797 2 3 2.39797 3 2.88889V18.1111C3 18.602 3.39797 19 3.88889 19H5V17.6667H4.33333Z" fill="#1D2327"/>
<rect x="10" y="13" width="7" height="1" fill="#1D2327"/>
<rect x="14" y="10" width="7" height="1" transform="rotate(90 14 10)" fill="#1D2327"/>
</svg>
