<svg width="24" height="24" viewBox="0 0 24 24" fill="none" xmlns="http://www.w3.org/2000/svg">
<path d="M17 4.01913L16 3H8L7 4H4V5.48419L20 5.5V4L17 4.01913Z" fill="#1D2327"/>
<path d="M9 10H10.5V19H9V10Z" fill="#1D2327"/>
<path d="M13.5 10H15V19H13.5V10Z" fill="#1D2327"/>
<path fill-rule="evenodd" clip-rule="evenodd" d="M5 7H19V19.8571C19 21.0357 18.0308 22 16.8462 22H7.15385C5.96923 22 5 21.0357 5 19.8571V7ZM6.5 19.8571C6.5 20.2001 6.79042 20.5 7.15385 20.5H16.8462C17.2096 20.5 17.5 20.2001 17.5 19.8571V8.5H6.5V19.8571Z" fill="#1D2327"/>
</svg>
