<svg width="24" height="24" viewBox="0 0 24 24" fill="none" xmlns="http://www.w3.org/2000/svg">
<path fill-rule="evenodd" clip-rule="evenodd" d="M12 15.5C10.067 15.5 8.5 13.933 8.5 12C8.5 10.067 10.067 8.5 12 8.5C13.933 8.5 15.5 10.067 15.5 12C15.5 13.933 13.933 15.5 12 15.5ZM12 14C13.1046 14 14 13.1046 14 12C14 10.8954 13.1046 10 12 10C10.8954 10 10 10.8954 10 12C10 13.1046 10.8954 14 12 14Z" fill="#1D2327"/>
<path fill-rule="evenodd" clip-rule="evenodd" d="M2.16521 11.5299C5.37759 7.53616 8.65315 5.5 11.9996 5.5C15.3461 5.5 18.6216 7.53616 21.834 11.5299L22.2121 12L21.834 12.4701C18.6216 16.4638 15.3461 18.5 11.9996 18.5C8.65315 18.5 5.37759 16.4638 2.16521 12.4701L1.78711 12L2.16521 11.5299ZM11.9996 17C14.6968 17 17.4588 15.3562 20.2789 12C17.4588 8.64376 14.6968 7 11.9996 7C9.30247 7 6.54047 8.64376 3.72038 12C6.54047 15.3562 9.30247 17 11.9996 17Z" fill="#1D2327"/>
</svg>
