<svg width="24" height="24" viewBox="0 0 24 24" fill="none" xmlns="http://www.w3.org/2000/svg">
<path fill-rule="evenodd" clip-rule="evenodd" d="M20.0065 3H3.99346C3.4448 3 3 3.4448 3 3.99346V20.0065C3 20.5552 3.44464 21 3.99346 21H12.6152V14.0391H10.2773V11.3145H12.6152V9.30939C12.6152 6.98447 14.0351 5.71849 16.109 5.71849C17.1024 5.71849 17.9562 5.79246 18.2051 5.82553V8.25521L16.7748 8.25586C15.6463 8.25586 15.4277 8.79213 15.4277 9.57909V11.3145H18.1257L17.7744 14.0391H15.4277V21H20.0066C20.5552 21 21 20.5552 21 20.0066V3.99346C21 3.4448 20.5552 3 20.0065 3Z" fill="#1D2327"/>
</svg>
