<svg width="24" height="24" viewBox="0 0 24 24" fill="none" xmlns="http://www.w3.org/2000/svg">
<path d="M20.5445 6.82886C20.1588 5.9907 19.5383 5.28013 18.757 4.78179C17.9756 4.28344 17.0663 4.01831 16.1373 4.01798C14.8182 4.02521 13.556 4.5516 12.6281 5.48142C12.4122 5.69559 12.2142 5.9276 11.9623 6.1953C11.6924 5.90975 11.4764 5.64205 11.2245 5.41004C10.2527 4.46415 9.13696 4.00013 7.91325 4.00013C7.45124 3.99677 6.99098 4.05683 6.54557 4.1786C5.5328 4.44898 4.63749 5.0415 3.99707 5.86523C3.35665 6.68895 3.00651 7.69835 3.00041 8.73848C2.98241 10.1841 3.55828 11.3977 4.58403 12.3971C6.34762 14.1639 8.1292 15.9308 9.91077 17.6798C10.5946 18.3579 11.2785 19.0361 11.9803 19.75C12.0703 19.6608 12.1242 19.6251 12.1782 19.5715L19.4125 12.3971C19.5889 12.2256 19.7514 12.0407 19.8984 11.8438C21.0483 10.2912 21.3561 8.5957 20.5445 6.82886ZM18.8709 11.0943C18.7552 11.2457 18.629 11.3888 18.4929 11.5226L12.0685 17.8939L11.9785 17.9832L10.7908 16.8053L8.939 14.967C7.80527 13.8427 6.61755 12.6826 5.46583 11.5226C4.65602 10.7016 4.26011 9.79144 4.26011 8.75633C4.26035 7.9924 4.51429 7.24983 4.98269 6.64337C5.45108 6.03691 6.10786 5.60033 6.8515 5.40111C7.1978 5.30871 7.55463 5.26072 7.91325 5.25834C8.81303 5.25834 9.62284 5.59743 10.3607 6.3113C10.5071 6.45205 10.6453 6.60102 10.7746 6.75748C10.8645 6.84671 10.9545 6.95379 11.0445 7.04303L11.9623 8.0246L12.8981 7.05195L13.15 6.78425C13.294 6.62362 13.4199 6.4987 13.5459 6.37377C14.2294 5.68143 15.1604 5.28392 16.1373 5.26726C16.8251 5.26814 17.4981 5.46555 18.0758 5.83586C18.6535 6.20617 19.1113 6.73371 19.3945 7.35535C19.9686 8.61355 19.8066 9.84499 18.8709 11.0943Z" fill="#1D2327"/>
</svg>
