<svg width="24" height="24" viewBox="0 0 24 24" fill="none" xmlns="http://www.w3.org/2000/svg">
<path d="M10.7143 4C10.7143 3.44772 10.2666 3 9.71429 3H4C3.44772 3 3 3.44772 3 4V9.71429C3 10.2666 3.44772 10.7143 4 10.7143H9.71429C10.2666 10.7143 10.7143 10.2666 10.7143 9.71429V4Z" fill="#1D2327"/>
<path d="M21 4C21 3.44772 20.5523 3 20 3H14.2857C13.7334 3 13.2857 3.44772 13.2857 4V9.71429C13.2857 10.2666 13.7334 10.7143 14.2857 10.7143H20C20.5523 10.7143 21 10.2666 21 9.71429V4Z" fill="#1D2327"/>
<path d="M13.2857 14.2857C13.2857 13.7334 13.7334 13.2857 14.2857 13.2857H20C20.5523 13.2857 21 13.7334 21 14.2857V20C21 20.5523 20.5523 21 20 21H14.2857C13.7334 21 13.2857 20.5523 13.2857 20V14.2857Z" fill="#1D2327"/>
<path d="M10.7143 14.2857C10.7143 13.7334 10.2666 13.2857 9.71429 13.2857H4C3.44772 13.2857 3 13.7334 3 14.2857V20C3 20.5523 3.44772 21 4 21H9.71429C10.2666 21 10.7143 20.5523 10.7143 20V14.2857Z" fill="#1D2327"/>
</svg>
