<svg width="24" height="24" viewBox="0 0 24 24" fill="none" xmlns="http://www.w3.org/2000/svg">
<path d="M11.6842 11.7893C10.9556 11.7893 10.2433 11.5732 9.63741 11.1684C9.03154 10.7636 8.55933 10.1882 8.28048 9.515C8.00163 8.84179 7.92867 8.10102 8.07082 7.38636C8.21298 6.67169 8.56387 6.01523 9.07911 5.49998C9.59436 4.98473 10.2508 4.63385 10.9655 4.49169C11.6802 4.34954 12.4209 4.42249 13.0941 4.70134C13.7673 4.98019 14.3427 5.45241 14.7476 6.05827C15.1524 6.66414 15.3685 7.37644 15.3685 8.10511C15.3685 9.08222 14.9803 10.0193 14.2894 10.7102C13.5985 11.4012 12.6614 11.7893 11.6842 11.7893ZM11.6842 5.89458C11.247 5.89458 10.8197 6.02423 10.4561 6.26712C10.0926 6.51002 9.80929 6.85526 9.64198 7.25918C9.47467 7.6631 9.4309 8.10756 9.51619 8.53636C9.60149 8.96516 9.81202 9.35904 10.1212 9.66819C10.4303 9.97734 10.8242 10.1879 11.253 10.2732C11.6818 10.3585 12.1263 10.3147 12.5302 10.1474C12.9341 9.98006 13.2793 9.69673 13.5222 9.33321C13.7651 8.96969 13.8948 8.54231 13.8948 8.10511C13.8948 7.51884 13.6619 6.95659 13.2473 6.54203C12.8328 6.12748 12.2705 5.89458 11.6842 5.89458Z" fill="#1D2327"/>
<path d="M18.3158 20.0001H16.8421V16.2106C16.8421 15.6243 16.6092 15.0621 16.1947 14.6475C15.7801 14.2329 15.2178 14.0001 14.6316 14.0001H8.73684C8.15057 14.0001 7.58831 14.2329 7.17376 14.6475C6.75921 15.0621 6.52631 15.6243 6.52631 16.2106V20.0001H5.05263V16.2106C5.05263 15.2335 5.44078 14.2964 6.13171 13.6054C6.82263 12.9145 7.75973 12.5264 8.73684 12.5264H14.6316C15.6087 12.5264 16.5458 12.9145 17.2367 13.6054C17.9276 14.2964 18.3158 15.2335 18.3158 16.2106V20.0001Z" fill="#1D2327"/>
</svg>
