<svg width="24" height="24" viewBox="0 0 24 24" fill="none" xmlns="http://www.w3.org/2000/svg">
<path d="M14.0842 11.7893C13.3556 11.7893 12.6433 11.5732 12.0374 11.1684C11.4315 10.7636 10.9593 10.1882 10.6805 9.515C10.4016 8.84179 10.3287 8.10102 10.4708 7.38636C10.613 6.67169 10.9639 6.01523 11.4791 5.49998C11.9944 4.98473 12.6508 4.63385 13.3655 4.49169C14.0801 4.34954 14.8209 4.42249 15.4941 4.70134C16.1673 4.98019 16.7427 5.45241 17.1475 6.05827C17.5524 6.66414 17.7684 7.37644 17.7684 8.10511C17.7684 9.08222 17.3803 10.0193 16.6894 10.7102C15.9984 11.4012 15.0613 11.7893 14.0842 11.7893ZM14.0842 5.89458C13.647 5.89458 13.2197 6.02423 12.8561 6.26712C12.4926 6.51002 12.2093 6.85526 12.042 7.25918C11.8747 7.6631 11.8309 8.10756 11.9162 8.53636C12.0015 8.96516 12.212 9.35904 12.5212 9.66819C12.8303 9.97733 13.2242 10.1879 13.653 10.2732C14.0818 10.3585 14.5262 10.3147 14.9302 10.1474C15.3341 9.98006 15.6793 9.69673 15.9222 9.33321C16.1651 8.96969 16.2948 8.54231 16.2948 8.10511C16.2948 7.51884 16.0619 6.95659 15.6473 6.54203C15.2328 6.12748 14.6705 5.89458 14.0842 5.89458Z" fill="#1D2327"/>
<path d="M20.7163 20H19.2426V16.2106C19.2426 15.6243 19.0097 15.0621 18.5952 14.6475C18.1806 14.2329 17.6183 14.0001 17.0321 14.0001H11.1373C10.5511 14.0001 9.98881 14.2329 9.57426 14.6475C9.1597 15.0621 8.92681 15.6243 8.92681 16.2106V20H7.45312V16.2106C7.45312 15.2335 7.84128 14.2964 8.53221 13.6054C9.22313 12.9145 10.1602 12.5264 11.1373 12.5264H17.0321C18.0092 12.5264 18.9463 12.9145 19.6372 13.6054C20.3281 14.2964 20.7163 15.2335 20.7163 16.2106V20Z" fill="#1D2327"/>
<path d="M6.40002 3.2002L6.40002 8.80019L5.60002 8.80019L5.60002 3.2002L6.40002 3.2002Z" fill="#1D2327"/>
<path d="M3.20001 5.60059H8.80001V6.40059H3.20001V5.60059Z" fill="#1D2327"/>
</svg>
