<svg width="24" height="24" viewBox="0 0 24 24" fill="none" xmlns="http://www.w3.org/2000/svg">
<path fill-rule="evenodd" clip-rule="evenodd" d="M17.0367 17.2124C15.809 18.3272 14.1927 19 12.4288 19C8.62427 19 5.5 15.8604 5.5 11.9377C5.5 9.42341 6.78596 7.22759 8.71103 5.97718C8.65757 6.39989 8.63003 6.83052 8.63003 7.2673C8.63003 12.2816 12.2602 16.469 17.0367 17.2124ZM18.2162 15.8227C13.72 15.6401 10.13 11.8796 10.13 7.2673C10.13 6.55051 10.2167 5.85429 10.3801 5.18888C10.5248 4.59937 10.7296 4.03404 10.9876 3.5C10.3473 3.61206 9.73179 3.79749 9.14964 4.04746C6.12351 5.34688 4 8.39036 4 11.9377C4 16.6665 7.7737 20.5 12.4288 20.5C15.0763 20.5 17.4387 19.26 18.984 17.3205C19.379 16.8247 19.7207 16.2832 20 15.705C19.5317 15.7869 19.0502 15.8296 18.5588 15.8296C18.4441 15.8296 18.3299 15.8273 18.2162 15.8227Z" fill="#1D2327"/>
</svg>
