<svg width="24" height="24" viewBox="0 0 24 24" fill="none" xmlns="http://www.w3.org/2000/svg">
<path d="M11.5 10.75H10.75V9.25H13V15.75H14.75V17.25H9.75V15.75H11.5V10.75Z" fill="#1D2327"/>
<path d="M13 7C13 7.55228 12.5523 8 12 8C11.4477 8 11 7.55228 11 7C11 6.44772 11.4477 6 12 6C12.5523 6 13 6.44772 13 7Z" fill="#1D2327"/>
<path fill-rule="evenodd" clip-rule="evenodd" d="M22 12C22 17.5228 17.5228 22 12 22C6.47715 22 2 17.5228 2 12C2 6.47715 6.47715 2 12 2C17.5228 2 22 6.47715 22 12ZM12 20.5C16.6944 20.5 20.5 16.6944 20.5 12C20.5 7.30558 16.6944 3.5 12 3.5C7.30558 3.5 3.5 7.30558 3.5 12C3.5 16.6944 7.30558 20.5 12 20.5Z" fill="#1D2327"/>
</svg>
