<svg width="24" height="24" viewBox="0 0 24 24" fill="none" xmlns="http://www.w3.org/2000/svg">
<path d="M17.879 7.20035C17.879 7.79663 17.3957 8.27999 16.7994 8.27999C16.2031 8.27999 15.7197 7.79663 15.7197 7.20035C15.7197 6.60406 16.2031 6.12067 16.7994 6.12067C17.3957 6.12067 17.879 6.60406 17.879 7.20035Z" fill="#1D2327"/>
<path fill-rule="evenodd" clip-rule="evenodd" d="M11.9971 7.38287C9.44545 7.38287 7.37695 9.45137 7.37695 12.0031C7.37695 14.5547 9.44545 16.6232 11.9971 16.6232C14.5488 16.6232 16.6173 14.5547 16.6173 12.0031C16.6173 9.45137 14.5488 7.38287 11.9971 7.38287ZM11.9971 15.0021C10.3408 15.0021 8.99806 13.6594 8.99806 12.0031C8.99806 10.3467 10.3408 9.00398 11.9971 9.00398C13.6535 9.00398 14.9962 10.3467 14.9962 12.0031C14.9962 13.6594 13.6535 15.0021 11.9971 15.0021Z" fill="#1D2327"/>
<path fill-rule="evenodd" clip-rule="evenodd" d="M8.28764 3.06C9.24729 3.01622 9.55368 3.00586 11.9972 3.00586C14.4406 3.00586 14.747 3.01622 15.7067 3.06C16.6643 3.10368 17.3184 3.25579 17.8906 3.47822C18.4823 3.70811 18.984 4.01575 19.4842 4.51593C19.9844 5.01614 20.2921 5.51789 20.522 6.10954C20.7444 6.68182 20.8965 7.33586 20.9402 8.2935C20.984 9.25315 20.9943 9.55954 20.9943 12.003C20.9943 14.4465 20.984 14.7529 20.9402 15.7125C20.8965 16.6702 20.7444 17.3242 20.522 17.8965C20.2921 18.4881 19.9844 18.9899 19.4842 19.4901C18.984 19.9903 18.4823 20.2979 17.8906 20.5279C17.3184 20.7503 16.6643 20.9024 15.7067 20.946C14.747 20.9898 14.4406 21.0002 11.9972 21.0002C9.55368 21.0002 9.24729 20.9898 8.28764 20.946C7.33 20.9024 6.67596 20.7503 6.10368 20.5279C5.51204 20.2979 5.01029 19.9903 4.51007 19.4901C4.00989 18.9899 3.70225 18.4881 3.47236 17.8965C3.24993 17.3242 3.09782 16.6702 3.05414 15.7125C3.01036 14.7529 3 14.4465 3 12.003C3 9.55954 3.01036 9.25315 3.05414 8.2935C3.09782 7.33586 3.24993 6.68182 3.47236 6.10954C3.70225 5.51789 4.00989 5.01614 4.51007 4.51593C5.01029 4.01575 5.51204 3.70811 6.10368 3.47822C6.67596 3.25579 7.33 3.10368 8.28764 3.06ZM15.6328 4.67943C14.6841 4.63614 14.3995 4.62697 11.9972 4.62697C9.59482 4.62697 9.31025 4.63614 8.36154 4.67943C7.48432 4.71943 7.00793 4.866 6.69089 4.98922C6.27093 5.15243 5.97121 5.34739 5.65639 5.66225C5.34154 5.97707 5.14657 6.27679 4.98336 6.69675C4.86014 7.01379 4.71357 7.49018 4.67357 8.3674C4.63029 9.31611 4.62111 9.60068 4.62111 12.003C4.62111 14.4054 4.63029 14.6899 4.67357 15.6386C4.71357 16.5159 4.86014 16.9923 4.98336 17.3093C5.14657 17.7293 5.34157 18.029 5.65639 18.3438C5.97121 18.6586 6.27093 18.8536 6.69089 19.0168C7.00793 19.14 7.48432 19.2866 8.36154 19.3266C9.31014 19.3699 9.59464 19.3791 11.9972 19.3791C14.3997 19.3791 14.6842 19.3699 15.6328 19.3266C16.51 19.2866 16.9864 19.14 17.3034 19.0168C17.7234 18.8536 18.0231 18.6586 18.3379 18.3438C18.6528 18.029 18.8477 17.7293 19.011 17.3093C19.1342 16.9923 19.2808 16.5159 19.3208 15.6386C19.364 14.6899 19.3732 14.4054 19.3732 12.003C19.3732 9.60068 19.364 9.31611 19.3208 8.3674C19.2808 7.49018 19.1342 7.01379 19.011 6.69675C18.8477 6.27679 18.6528 5.97707 18.3379 5.66225C18.0231 5.34739 17.7234 5.15243 17.3034 4.98922C16.9864 4.866 16.51 4.71943 15.6328 4.67943Z" fill="#1D2327"/>
</svg>
