<svg width="24" height="24" viewBox="0 0 24 24" fill="none" xmlns="http://www.w3.org/2000/svg">
<path fill-rule="evenodd" clip-rule="evenodd" d="M9.9298 12.75C9.57875 14.6006 7.95279 16 6 16C3.79086 16 2 14.2091 2 12C2 9.79086 3.79086 8 6 8C7.95279 8 9.57875 9.39935 9.9298 11.25H21.5V12.75H19.25V15.5263H17.75V12.75H16.25V15.5263H14.75V12.75H9.9298ZM8.5 12C8.5 13.3807 7.38071 14.5 6 14.5C4.61929 14.5 3.5 13.3807 3.5 12C3.5 10.6193 4.61929 9.5 6 9.5C7.38071 9.5 8.5 10.6193 8.5 12Z" fill="#1D2327"/>
</svg>
