<svg width="24" height="24" viewBox="0 0 24 24" fill="none" xmlns="http://www.w3.org/2000/svg">
<path fill-rule="evenodd" clip-rule="evenodd" d="M18.3389 18.3384H15.6694V14.1608C15.6694 13.1648 15.6524 11.8832 14.2823 11.8832C12.8928 11.8832 12.6808 12.9688 12.6808 14.0898V18.3384H10.0142V9.74819H12.5733V10.9227H12.6103C12.9663 10.2472 13.8373 9.53518 15.1358 9.53518C17.8394 9.53518 18.3389 11.3137 18.3389 13.6273V18.3384ZM7.00411 8.57465C6.14659 8.57465 5.45507 7.88114 5.45507 7.02611C5.45507 6.17159 6.14659 5.47807 7.00411 5.47807C7.85813 5.47807 8.55115 6.17159 8.55115 7.02611C8.55115 7.88114 7.85813 8.57465 7.00411 8.57465ZM5.66707 18.3384H8.33965V9.74819H5.66707V18.3384ZM19.6685 3H4.32754C3.59502 3 3 3.58102 3 4.29804V19.7015C3 20.4185 3.59502 21.0005 4.32754 21.0005H19.6685C20.4025 21.0005 21 20.4185 21 19.7015V4.29804C21 3.58102 20.4025 3 19.6685 3Z" fill="#1D2327"/>
</svg>
