<svg width="24" height="24" viewBox="0 0 24 24" fill="none" xmlns="http://www.w3.org/2000/svg">
<path fill-rule="evenodd" clip-rule="evenodd" d="M3.46967 19.4697L4.53033 20.5304L8.31065 16.7501H11V15.2501H9.81065L12.3107 12.7501H16V11.2501H13.8107L16.3107 8.75006H17C18.7949 8.75006 20.25 10.2051 20.25 12.0001C20.25 13.795 18.7949 15.2501 17 15.2501H13V16.7501H17C19.6234 16.7501 21.75 14.6234 21.75 12.0001C21.75 9.63244 20.0178 7.66941 17.7515 7.30918L20.5303 4.53039L19.4697 3.46973L15.6893 7.25006H13V8.75006H14.1893L11.6893 11.2501H8V12.7501H10.1893L7.68933 15.2501H7C5.20507 15.2501 3.75 13.795 3.75 12.0001C3.75 10.2051 5.20507 8.75006 7 8.75006H11V7.25006H7C4.37665 7.25006 2.25 9.37671 2.25 12.0001C2.25 14.3677 3.98222 16.3307 6.24845 16.6909L3.46967 19.4697Z" fill="#1D2327"/>
</svg>
