<svg width="24" height="24" viewBox="0 0 24 24" fill="none" xmlns="http://www.w3.org/2000/svg">
<path d="M8 8C8 8.55228 7.55228 9 7 9C6.44772 9 6 8.55228 6 8C6 7.44772 6.44772 7 7 7C7.55228 7 8 7.44772 8 8Z" fill="#1D2327"/>
<path d="M8 12C8 12.5523 7.55228 13 7 13C6.44772 13 6 12.5523 6 12C6 11.4477 6.44772 11 7 11C7.55228 11 8 11.4477 8 12Z" fill="#1D2327"/>
<path d="M7 17C7.55228 17 8 16.5523 8 16C8 15.4477 7.55228 15 7 15C6.44772 15 6 15.4477 6 16C6 16.5523 6.44772 17 7 17Z" fill="#1D2327"/>
<path d="M10 7H18V9H10V7Z" fill="#1D2327"/>
<path d="M18 11H10V13H18V11Z" fill="#1D2327"/>
<path d="M10 15H18V17H10V15Z" fill="#1D2327"/>
<path fill-rule="evenodd" clip-rule="evenodd" d="M3 4C3 3.44772 3.44772 3 4 3H20C20.5523 3 21 3.44772 21 4V20C21 20.5523 20.5523 21 20 21H4C3.44772 21 3 20.5523 3 20V4ZM4.5 19.5V4.5H19.5V19.5H4.5Z" fill="#1D2327"/>
</svg>
