<svg width="24" height="24" viewBox="0 0 24 24" fill="none" xmlns="http://www.w3.org/2000/svg">
<path fill-rule="evenodd" clip-rule="evenodd" d="M12 6C9.75 6 8 7.875 8 10C8 12.125 9.875 14 12 14C14.125 14 16 12.125 16 10C16 7.875 14.25 6 12 6ZM9.5 10C9.5 8.67285 10.6087 7.5 12 7.5C13.3913 7.5 14.5 8.67285 14.5 10C14.5 11.2966 13.2966 12.5 12 12.5C10.7034 12.5 9.5 11.2966 9.5 10Z" fill="#1D2327"/>
<path fill-rule="evenodd" clip-rule="evenodd" d="M20 10.1279C20 17.1598 12 22 12 22C12 22 4 17.1598 4 10.1279C4 5.65297 7.59551 2 12 2C16.4045 2 20 5.65297 20 10.1279ZM18.5 10.1279C18.5 13.0728 16.8121 15.6836 14.9165 17.6636C13.9865 18.635 13.0518 19.4064 12.3488 19.9347C12.2244 20.0282 12.1077 20.1138 12 20.1912C11.8923 20.1138 11.7756 20.0282 11.6512 19.9347C10.9482 19.4064 10.0135 18.635 9.0835 17.6636C7.18787 15.6836 5.5 13.0728 5.5 10.1279C5.5 6.45888 8.44627 3.5 12 3.5C15.5537 3.5 18.5 6.45888 18.5 10.1279Z" fill="#1D2327"/>
</svg>
