<svg width="24" height="24" viewBox="0 0 24 24" fill="none" xmlns="http://www.w3.org/2000/svg">
<path fill-rule="evenodd" clip-rule="evenodd" d="M8 4.00023L13.25 0.536133V3.07866C14.7849 3.27204 16.26 3.81976 17.5557 4.68554C19.2002 5.78436 20.4819 7.34614 21.2388 9.1734C21.9957 11.0007 22.1937 13.0113 21.8079 14.9511C21.422 16.891 20.4696 18.6728 19.0711 20.0713C17.6725 21.4698 15.8907 22.4222 13.9509 22.8081C12.0111 23.1939 10.0004 22.9959 8.17317 22.239C6.3459 21.4822 4.78412 20.2004 3.6853 18.5559C2.58649 16.9114 2 14.9781 2 13.0002H3.5C3.5 14.6814 3.99852 16.3248 4.93251 17.7226C5.8665 19.1204 7.19402 20.2099 8.74719 20.8532C10.3004 21.4966 12.0094 21.6649 13.6583 21.3369C15.3071 21.0089 16.8217 20.1994 18.0104 19.0106C19.1992 17.8219 20.0087 16.3073 20.3367 14.6585C20.6646 13.0097 20.4963 11.3006 19.853 9.74743C19.2096 8.19426 18.1202 6.86674 16.7223 5.93275C15.6738 5.23215 14.4871 4.77658 13.25 4.59265V7.46434L8 4.00023ZM15.6263 10.9563H15.2743V10.1562H16.0343V10.7563C16.0343 11.2763 15.8903 11.7163 15.5063 12.0603L15.1703 11.8203C15.4743 11.5402 15.5943 11.3003 15.6263 10.9563ZM16.5303 10.9563V10.1562H17.2903V10.7563C17.2903 11.2763 17.1463 11.7163 16.7623 12.0603L16.4263 11.8203C16.7303 11.5402 16.8503 11.3003 16.8823 10.9563H16.5303ZM12.4479 15.6123C13.9199 15.6123 14.5279 14.4843 14.5279 12.6923V12.5642C14.5279 11.1003 13.9519 10.1803 12.4479 10.1803C10.9519 10.1803 10.3759 11.1003 10.3759 12.5642V12.6923C10.3759 14.4843 10.9839 15.6123 12.4479 15.6123ZM12.4479 14.9722C11.3919 14.9722 11.0399 14.0203 11.0399 12.7483V12.5562C11.0399 11.5723 11.2639 10.7803 12.4479 10.7803C13.6399 10.7803 13.8559 11.5723 13.8559 12.5562V12.7483C13.8559 14.0203 13.5119 14.9722 12.4479 14.9722ZM9.28596 15.5002L9.27796 10.3003H8.62196L7.70996 11.1403L8.07796 11.5483L8.62196 11.0282L8.62996 15.5002H9.28596Z" fill="#1D2327"/>
</svg>
