<svg width="24" height="24" viewBox="0 0 24 24" fill="none" xmlns="http://www.w3.org/2000/svg">
<path d="M16.8889 12L8.33333 16.8889V7.11111L16.8889 12Z" fill="#1D2327"/>
<path fill-rule="evenodd" clip-rule="evenodd" d="M12 23C18.0751 23 23 18.0751 23 12C23 5.92487 18.0751 1 12 1C5.92487 1 1 5.92487 1 12C1 18.0751 5.92487 23 12 23ZM21.7778 12C21.7778 17.4001 17.4001 21.7778 12 21.7778C6.59988 21.7778 2.22222 17.4001 2.22222 12C2.22222 6.59988 6.59988 2.22222 12 2.22222C17.4001 2.22222 21.7778 6.59988 21.7778 12Z" fill="#1D2327"/>
</svg>
