<svg width="24" height="24" viewBox="0 0 24 24" fill="none" xmlns="http://www.w3.org/2000/svg">
<path fill-rule="evenodd" clip-rule="evenodd" d="M5.94304 5L3.49113 2.5H20.5284L18.0764 5L18.7767 5.71394L21.4968 2.94049C21.4991 2.96 21.5003 2.97986 21.5003 3V20.4902L19.058 18L18.3578 18.7139L21.0835 21.4931C21.0564 21.4976 21.0286 21.5 21.0003 21.5H3.00026C2.97164 21.5 2.94359 21.4976 2.91629 21.493L5.64187 18.7139L4.94167 18L2.50026 20.4893V3C2.50026 2.97399 2.50225 2.94844 2.50607 2.92351L5.24283 5.71394L5.94304 5ZM1.00026 3C1.00026 1.89543 1.89569 1 3.00026 1H21.0003C22.1048 1 23.0003 1.89543 23.0003 3V21C23.0003 22.1046 22.1048 23 21.0003 23H3.00026C1.89569 23 1.00026 22.1046 1.00026 21V3ZM9.00026 9H15.0003V15H9.00026V9ZM8.00026 9C8.00026 8.44772 8.44798 8 9.00026 8H15.0003C15.5525 8 16.0003 8.44772 16.0003 9V15C16.0003 15.5523 15.5525 16 15.0003 16H9.00026C8.44798 16 8.00026 15.5523 8.00026 15V9Z" fill="#1D2327"/>
</svg>
