<svg width="24" height="24" viewBox="0 0 24 24" fill="none" xmlns="http://www.w3.org/2000/svg">
<path fill-rule="evenodd" clip-rule="evenodd" d="M18 12C18 12.27 17.98 12.53 17.95 12.78L19.62 14.1C19.78 14.22 19.82 14.43 19.72 14.61L18.12 17.38C18.02 17.56 17.81 17.63 17.63 17.56L15.64 16.76C15.23 17.07 14.78 17.34 14.29 17.54L13.99 19.66C13.97 19.86 13.8 20 13.6 20H10.4C10.2 20 10.04 19.86 10 19.66L9.70001 17.54C9.21001 17.34 8.77001 17.08 8.35001 16.76L6.36001 17.56C6.18001 17.62 5.97001 17.56 5.87001 17.38L4.27001 14.61C4.18001 14.44 4.22001 14.22 4.37001 14.1L6.06001 12.78C6.02001 12.53 6.00001 12.26 6.00001 12C6.00001 11.74 6.03001 11.47 6.07001 11.22L4.38001 9.9C4.22001 9.78 4.18001 9.57 4.28001 9.39L5.88001 6.62C5.98001 6.44 6.19001 6.37 6.37001 6.44L8.36001 7.24C8.77001 6.93 9.22001 6.66 9.71001 6.46L10.01 4.34C10.04 4.14 10.2 4 10.4 4H13.6C13.8 4 13.97 4.14 14 4.34L14.3 6.46C14.79 6.66 15.23 6.92 15.65 7.24L17.64 6.44C17.82 6.38 18.03 6.44 18.13 6.62L19.73 9.39C19.82 9.56 19.78 9.78 19.63 9.9L17.94 11.22C17.98 11.47 18 11.73 18 12ZM9.00001 12C9.00001 13.65 10.35 15 12 15C13.65 15 15 13.65 15 12C15 10.35 13.65 9 12 9C10.35 9 9.00001 10.35 9.00001 12Z" fill="#1D2327"/>
</svg>
