<svg width="24" height="24" viewBox="0 0 24 24" fill="none" xmlns="http://www.w3.org/2000/svg">
<path fill-rule="evenodd" clip-rule="evenodd" d="M16.3391 16.4472L14.8812 18.5997C16.3328 19.1072 17.8841 19.4051 19.5 19.4562V16.9645C18.4118 16.9227 17.3477 16.7453 16.3391 16.4472ZM10.7806 18.2501C10.2912 17.9337 9.81912 17.5928 9.36605 17.2291C7.94309 16.087 6.70787 14.7206 5.71398 13.1835C5.45828 12.788 5.21855 12.3813 4.9957 11.9641C4.45402 10.9501 4.01212 9.87481 3.6831 8.75122C3.23848 7.23286 3 5.62638 3 3.96411C3 3.41411 3.45 2.96411 4 2.96411H7.5C8.05 2.96411 8.5 3.41411 8.5 3.96411C8.5 5.21411 8.7 6.41411 9.07 7.53411C9.18 7.88411 9.1 8.27411 8.82 8.55411L6 10.4641C6.29051 11.142 6.61853 11.7823 6.98407 12.3852C7.86497 13.838 8.96372 15.0729 10.2803 16.09C10.6919 16.408 11.1248 16.7046 11.5789 16.98C12.1818 17.3456 12.8221 17.6736 13.5 17.9641L15.41 15.1441C15.61 14.9541 15.86 14.8541 16.12 14.8541C16.22 14.8541 16.33 14.8641 16.43 14.9041C17.55 15.2741 18.76 15.4741 20 15.4741C20.55 15.4741 21 15.9241 21 16.4741V19.9641C21 20.5141 20.55 20.9641 20 20.9641C17.8114 20.9641 15.7195 20.5507 13.7981 19.7977C12.736 19.3814 11.726 18.8614 10.7806 18.2501ZM5.36444 9.08291L7.5252 7.61941C7.22798 6.61341 7.051 5.55595 7.00949 4.46411H4.50789C4.55027 5.80411 4.76235 7.09926 5.12265 8.32968C5.19698 8.58351 5.27763 8.83464 5.36444 9.08291Z" fill="#1D2327"/>
</svg>
