<svg width="24" height="24" viewBox="0 0 24 24" fill="none" xmlns="http://www.w3.org/2000/svg">
<path fill-rule="evenodd" clip-rule="evenodd" d="M8.73138 19.144C15.6163 19.144 19.3837 13.7008 19.3837 8.98844C19.3837 8.83531 19.3837 8.68217 19.3764 8.52904C20.1065 8.02787 20.7417 7.39446 21.2455 6.67751C20.5738 6.9629 19.851 7.15083 19.0917 7.24132C19.8656 6.8028 20.457 6.09978 20.7417 5.2645C20.0189 5.67518 19.2158 5.96753 18.3616 6.12762C17.6753 5.43156 16.7042 5 15.6309 5C13.5647 5 11.8855 6.60094 11.8855 8.5708C11.8855 8.84923 11.922 9.12069 11.9804 9.3852C8.8701 9.23902 6.11028 7.81209 4.26309 5.6543C3.94184 6.18331 3.75932 6.79584 3.75932 7.45014C3.75932 8.68913 4.42372 9.78195 5.42397 10.4223C4.81068 10.4014 4.23389 10.2414 3.73011 9.97685C3.73011 9.99077 3.73011 10.0047 3.73011 10.0256C3.73011 11.7518 5.02241 13.1996 6.73087 13.5268C6.41692 13.6103 6.08837 13.6521 5.74522 13.6521C5.50428 13.6521 5.27065 13.6312 5.04431 13.5894C5.51889 15.0094 6.9061 16.0396 8.54155 16.0674C7.25655 17.028 5.64301 17.5987 3.89074 17.5987C3.59139 17.5987 3.29204 17.5848 3 17.55C4.65005 18.5523 6.62136 19.144 8.73138 19.144Z" fill="#1D2327"/>
</svg>
