<svg width="24" height="24" viewBox="0 0 24 24" fill="none" xmlns="http://www.w3.org/2000/svg">
<path fill-rule="evenodd" clip-rule="evenodd" d="M12 3.5C11.0749 3.5 10.2336 3.85891 9.60783 4.44509L8.84384 3.12183C9.70456 2.4205 10.8032 2 12 2C14.7614 2 17 4.23858 17 7V8H18.5H20V9.5V20.5V22H18.5H5.5H4V20.5V9.5V8H5.5H15.5V7C15.5 5.067 13.933 3.5 12 3.5ZM5.5 9.5H18.5V20.5H5.5V9.5ZM14 15C14 16.1046 13.1046 17 12 17C10.8954 17 10 16.1046 10 15C10 13.8954 10.8954 13 12 13C13.1046 13 14 13.8954 14 15Z" fill="#1D2327"/>
</svg>
