<svg width="24" height="24" viewBox="0 0 24 24" fill="none" xmlns="http://www.w3.org/2000/svg">
<path fill-rule="evenodd" clip-rule="evenodd" d="M16.9487 3.50698C16.4962 3.48419 16.0404 3.51675 15.5945 3.61115C15.181 3.69905 14.9076 4.10923 14.9955 4.52266C15.0834 4.93609 15.4935 5.20954 15.907 5.12165C17.1798 4.85145 18.5666 5.23559 19.5009 6.26754C20.432 7.30275 20.6826 8.72861 20.2822 9.96565C20.152 10.3693 20.3734 10.799 20.777 10.9292C21.1774 11.0595 21.6104 10.8348 21.7406 10.4344C22.3005 8.6928 21.962 6.70702 20.6468 5.25186C19.6604 4.16131 18.3094 3.57209 16.9487 3.50698ZM10.0473 5.79877C8.65074 5.94852 6.70077 7.03581 4.9689 8.76767C3.08404 10.6558 2 12.6644 2 14.393C2 17.7004 6.23525 19.7057 10.3859 19.7057C15.8256 19.7057 19.4488 16.5383 19.4488 14.0284C19.4488 12.5114 18.176 11.6487 17.0268 11.2938L16.9873 11.2821C16.7253 11.2048 16.5487 11.1526 16.6883 10.799C17.0073 9.99495 17.0594 9.28853 16.7143 8.79372C16.0665 7.86593 14.2695 7.91476 12.2349 8.76767C12.2349 8.76767 11.6034 9.06717 11.7661 8.55933C12.0787 7.55342 12.0201 6.70376 11.5317 6.21546C11.1867 5.87039 10.6821 5.73041 10.0473 5.79877ZM16.1674 6.26754C16.3855 6.22197 16.5971 6.20569 16.8185 6.21546C17.4826 6.24475 18.1369 6.54425 18.6154 7.07488C19.2568 7.78455 19.4358 8.75465 19.1624 9.60105C19.0517 9.94612 18.674 10.1284 18.329 10.0177C17.9839 9.9038 17.8016 9.52943 17.9123 9.18436C18.0458 8.77093 17.9644 8.30541 17.6519 7.96034C17.3393 7.61527 16.8543 7.47854 16.4278 7.56969C16.073 7.64782 15.7247 7.42971 15.6465 7.07488C15.5684 6.71678 15.8093 6.34242 16.1674 6.26754ZM10.8286 10.6167C13.5957 10.7144 15.8223 12.1012 16.0111 14.0023C16.226 16.1769 13.7226 18.2083 10.4119 18.5338C7.10118 18.8593 4.22017 17.3488 4.00531 15.1743C3.79046 12.9997 6.31989 10.9683 9.63061 10.6428C10.044 10.6005 10.4347 10.6037 10.8286 10.6167ZM6.68774 14.0805C7.20209 13.0387 8.32845 12.3453 9.52643 12.2314C9.92685 12.1923 10.3305 12.2347 10.7244 12.3356C12.3554 12.7555 13.1887 14.279 12.5214 15.7732C11.8443 17.3033 9.9008 18.1269 8.25033 17.5963C6.65845 17.0819 5.99109 15.4965 6.68774 14.0805ZM10.2817 14.0544C10.3338 14.0544 10.3631 14.0609 10.4119 14.0805C10.6137 14.1553 10.7049 14.3767 10.5942 14.5753C10.477 14.7738 10.2231 14.865 10.0213 14.7836C9.82267 14.7022 9.75431 14.4841 9.86499 14.2888C9.95289 14.1423 10.1254 14.0577 10.2817 14.0544ZM9.16183 14.6013C9.03487 14.546 8.88512 14.5264 8.74514 14.5232C8.32845 14.5167 7.91502 14.7511 7.67738 15.1222C7.35835 15.6202 7.5081 16.2192 8.01594 16.4504C8.53354 16.6848 9.20741 16.4406 9.52643 15.9295C9.84221 15.4152 9.67944 14.8227 9.16183 14.6013Z" fill="#1D2327"/>
</svg>
