<svg width="24" height="24" viewBox="0 0 24 24" fill="none" xmlns="http://www.w3.org/2000/svg">
<path fill-rule="evenodd" clip-rule="evenodd" d="M9.95455 14.819V8.87151L15.1818 11.8454L9.95455 14.819ZM21.582 7.00015C21.352 6.13401 20.6743 5.45196 19.8139 5.22049C18.2542 4.7998 12 4.7998 12 4.7998C12 4.7998 5.7458 4.7998 4.18614 5.22049C3.32568 5.45196 2.64795 6.13401 2.41795 7.00015C2 8.56992 2 11.8453 2 11.8453C2 11.8453 2 15.1205 2.41795 16.6904C2.64795 17.5565 3.32568 18.2386 4.18614 18.4701C5.7458 18.8907 12 18.8907 12 18.8907C12 18.8907 18.2542 18.8907 19.8139 18.4701C20.6743 18.2386 21.352 17.5565 21.582 16.6904C22 15.1205 22 11.8453 22 11.8453C22 11.8453 22 8.56992 21.582 7.00015Z" fill="#1D2327"/>
</svg>
