<svg width="24" height="24" viewBox="0 0 24 24" fill="none" xmlns="http://www.w3.org/2000/svg">
<path d="M11 7.7916H10V10.7961H7V11.7976H10V14.8021H11V11.7976H14V10.7961H11V7.7916Z" fill="#1D2327"/>
<path fill-rule="evenodd" clip-rule="evenodd" d="M17 11.2968C17 12.8238 16.475 14.228 15.596 15.3382L20.5615 20.3111L19.5008 21.3734L14.5354 16.4005C13.4268 17.2808 12.0247 17.8066 10.5 17.8066C6.91015 17.8066 4 14.8921 4 11.2968C4 7.70162 6.91015 4.78711 10.5 4.78711C14.0899 4.78711 17 7.70162 17 11.2968ZM10.5 16.3043C13.2614 16.3043 15.5 14.0624 15.5 11.2968C15.5 8.53129 13.2614 6.28936 10.5 6.28936C7.73858 6.28936 5.5 8.53129 5.5 11.2968C5.5 14.0624 7.73858 16.3043 10.5 16.3043Z" fill="#1D2327"/>
</svg>
