<svg width="24" height="24" viewBox="0 0 24 24" fill="none" xmlns="http://www.w3.org/2000/svg">
<path fill-rule="evenodd" clip-rule="evenodd" d="M10.5 15.5C13.2614 15.5 15.5 13.2614 15.5 10.5C15.5 7.73858 13.2614 5.5 10.5 5.5C7.73858 5.5 5.5 7.73858 5.5 10.5C5.5 13.2614 7.73858 15.5 10.5 15.5ZM17 10.5C17 12.0247 16.475 13.4268 15.596 14.5354L20.5615 19.5008L19.5008 20.5615L14.5354 15.596C13.4268 16.475 12.0247 17 10.5 17C6.91015 17 4 14.0899 4 10.5C4 6.91015 6.91015 4 10.5 4C14.0899 4 17 6.91015 17 10.5ZM7 10H8H13H14V11H13H8H7V10Z" fill="#1D2327"/>
</svg>
