<svg width="24" height="24" viewBox="0 0 24 24" fill="none" xmlns="http://www.w3.org/2000/svg">
<path fill-rule="evenodd" clip-rule="evenodd" d="M20 4L17 4.01913L16 3H8L7 4H4V5.48419L20 5.5V4ZM7.15385 20.5C6.79042 20.5 6.5 20.2001 6.5 19.8571V8.5H17.5V19.8571C17.5 20.2001 17.2096 20.5 16.8462 20.5H7.15385ZM19 7H5V19.8571C5 21.0357 5.96923 22 7.15385 22H16.8462C18.0308 22 19 21.0357 19 19.8571V7ZM9.54687 13.4867L8.45314 14.5133L11.9955 18.2876L15.5462 14.514L14.4538 13.4861L12.7462 15.3009V11H11.2462V15.2973L9.54687 13.4867Z" fill="#1D2327"/>
</svg>
