<svg width="24" height="24" viewBox="0 0 24 24" fill="none" xmlns="http://www.w3.org/2000/svg">
<path fill-rule="evenodd" clip-rule="evenodd" d="M20.1816 3.8595L21.9998 4.27273V19.7273L20.1816 20.1405V20.1818H19.9998L11.9998 22V20.1818H11.9996V22H10.9996V20.1818H5.31801H3.81801V18.6818V14.7273H5.31801V18.6818H10.9996V5.31818H5.31801V9.27273H3.81801V5.31818V3.81818H5.31801H10.9996V2H11.9996V3.81818H11.9998V2L19.9998 3.81818H20.1816V3.8595ZM11.9998 18.6818H11.9996V5.31818H11.9998V18.6818ZM13.9998 12H14.9998V13H13.9998V12ZM10 12L6.72096 15L6.21763 14.452L8.49136 12.3717L1 12.3717V11.6283L8.49135 11.6283L6.21763 9.54804L6.72097 9L10 12Z" fill="#1D2327"/>
</svg>
