<svg width="24" height="24" viewBox="0 0 24 24" fill="none" xmlns="http://www.w3.org/2000/svg">
<path fill-rule="evenodd" clip-rule="evenodd" d="M3.46973 19.4697L4.53039 20.5304L7.6969 17.3639C9.1183 18.1192 10.5523 18.5001 11.9996 18.5001C15.3461 18.5001 18.6216 16.4639 21.834 12.4701L22.2121 12.0001L21.834 11.53C20.4404 9.79739 19.0349 8.43322 17.6169 7.44389L20.5304 4.53039L19.4697 3.46973L16.3029 6.63655C14.8813 5.88101 13.4471 5.50006 11.9996 5.50006C8.65315 5.50006 5.37759 7.53622 2.16521 11.53L1.78711 12.0001L2.16521 12.4701C3.55899 14.2029 4.96467 15.5672 6.38287 16.5566L3.46973 19.4697ZM7.4621 15.4774C6.22684 14.6555 4.9794 13.4984 3.72038 12.0001C6.54047 8.64382 9.30247 7.00006 11.9996 7.00006C13.0517 7.00006 14.1136 7.25016 15.185 7.75444L13.8874 9.05205C13.3428 8.70267 12.6951 8.50006 12 8.50006C10.067 8.50006 8.5 10.0671 8.5 12.0001C8.5 12.6951 8.70261 13.3429 9.05199 13.8875L7.4621 15.4774ZM8.81482 16.246C9.88601 16.75 10.9477 17.0001 11.9996 17.0001C14.6968 17.0001 17.4588 15.3563 20.2789 12.0001C19.02 10.5019 17.7727 9.34494 16.5377 8.52311L14.948 10.1127C15.2974 10.6573 15.5 11.305 15.5 12.0001C15.5 13.9331 13.933 15.5001 12 15.5001C11.305 15.5001 10.6572 15.2975 10.1127 14.9481L8.81482 16.246ZM11.219 13.8418C11.4589 13.9437 11.7229 14.0001 12 14.0001C13.1046 14.0001 14 13.1046 14 12.0001C14 11.7229 13.9436 11.459 13.8418 11.219L11.219 13.8418ZM12.7811 10.1583C12.5411 10.0564 12.2772 10.0001 12 10.0001C10.8954 10.0001 10 10.8955 10 12.0001C10 12.2772 10.0564 12.5412 10.1583 12.7812L12.7811 10.1583Z" fill="#1D2327"/>
</svg>
