<svg width="24" height="25" viewBox="0 0 24 25" fill="none" xmlns="http://www.w3.org/2000/svg">
<path d="M18.757 5.28979C19.5383 5.78888 20.1588 6.50051 20.5445 7.33993C21.3561 9.10941 21.0483 10.8074 19.8984 12.3624C19.7514 12.5595 19.5889 12.7448 19.4125 12.9165L12.1782 20.1016C12.1242 20.1553 12.0703 20.191 11.9803 20.2804C11.2785 19.5655 10.5946 18.8863 9.91083 18.2071L9.91077 18.2071C8.1292 16.4554 6.34762 14.686 4.58403 12.9165C3.55828 11.9156 2.98241 10.7002 3.00041 9.2524C3.00651 8.21072 3.35665 7.19981 3.99707 6.37485C4.63749 5.54989 5.5328 4.95648 6.54557 4.68571C6.99098 4.56375 7.45124 4.50361 7.91325 4.50697C9.13696 4.50697 10.2527 4.97168 11.2245 5.91898C11.4764 6.15134 11.6924 6.41944 11.9623 6.70542C12.2142 6.43731 12.4122 6.20496 12.6281 5.99048C13.556 5.05926 14.8182 4.53209 16.1373 4.52484C17.0663 4.52517 17.9756 4.7907 18.757 5.28979Z" fill="#1D2327"/>
</svg>
