<svg width="24" height="24" viewBox="0 0 24 24" fill="none" xmlns="http://www.w3.org/2000/svg">
<path fill-rule="evenodd" clip-rule="evenodd" d="M1.99992 12.0523C1.99992 6.50058 6.5005 2 12.0522 2C17.604 2 22.1046 6.50058 22.1046 12.0523C22.1046 17.6041 17.604 22.1047 12.0522 22.1047C6.5005 22.1047 1.99992 17.6041 1.99992 12.0523ZM12.0522 3.5C7.32893 3.5 3.49992 7.32901 3.49992 12.0523C3.49992 16.7756 7.32893 20.6047 12.0522 20.6047C16.7756 20.6047 20.6046 16.7756 20.6046 12.0523C20.6046 7.32901 16.7756 3.5 12.0522 3.5ZM11.3022 11.3023V7.40116H12.8022V11.3023H16.7034V12.8023H12.8022V16.7035H11.3022V12.8023H7.40109V11.3023H11.3022Z" fill="#1D2327"/>
</svg>
