<svg width="24" height="24" viewBox="0 0 24 24" fill="none" xmlns="http://www.w3.org/2000/svg">
<path fill-rule="evenodd" clip-rule="evenodd" d="M6.5 7.71829C6.5 10.2073 8.51472 12.225 11 12.225C13.4853 12.225 15.5 10.2073 15.5 7.71829C15.5 5.22928 13.4853 3.21155 11 3.21155C8.51472 3.21155 6.5 5.22928 6.5 7.71829ZM14 7.71829C14 9.37762 12.6569 10.7228 11 10.7228C9.34315 10.7228 8 9.37762 8 7.71829C8 6.05895 9.34315 4.71379 11 4.71379C12.6569 4.71379 14 6.05895 14 7.71829ZM4.5 18.7348H11V20.237H3V18.234C3 15.4685 5.23858 13.2265 8 13.2265H14C16.7614 13.2265 19 15.4685 19 18.234V20.237H17.5V18.234C17.5 16.2981 15.933 14.7288 14 14.7288H8C6.067 14.7288 4.5 16.2981 4.5 18.234V18.7348ZM17 7.71829C17 9.86308 15.504 11.6579 13.5 12.1134C13.8216 12.1864 14.1563 12.225 14.5 12.225C16.9853 12.225 19 10.2073 19 7.71829C19 5.22928 16.9853 3.21155 14.5 3.21155C14.1563 3.21155 13.8216 3.25014 13.5 3.32322C15.504 3.77863 17 5.57349 17 7.71829ZM23 20.237H21V18.2265C21 15.4651 18.7614 13.2265 16 13.2265H18C20.7614 13.2265 23 15.4651 23 18.2265V20.237Z" fill="#444749"/>
<path d="M1 10.222H6V11.2235H1V10.222Z" fill="#444749"/>
<path d="M4 8.21899L4 13.2265L3 13.2265L3 8.21899L4 8.21899Z" fill="#444749"/>
</svg>
