<svg width="24" height="24" viewBox="0 0 24 24" fill="none" xmlns="http://www.w3.org/2000/svg">
<path d="M10.0847 11.7893C9.35607 11.7893 8.64377 11.5732 8.0379 11.1684C7.43204 10.7636 6.95982 10.1882 6.68097 9.515C6.40212 8.84179 6.32916 8.10102 6.47132 7.38636C6.61348 6.67169 6.96436 6.01523 7.47961 5.49998C7.99486 4.98473 8.65132 4.63385 9.36599 4.49169C10.0807 4.34954 10.8214 4.42249 11.4946 4.70134C12.1678 4.98019 12.7432 5.45241 13.1481 6.05827C13.5529 6.66414 13.769 7.37644 13.769 8.10511C13.769 9.08222 13.3808 10.0193 12.6899 10.7102C11.9989 11.4012 11.0619 11.7893 10.0847 11.7893ZM10.0847 5.89458C9.64754 5.89458 9.22016 6.02423 8.85664 6.26712C8.49312 6.51002 8.20979 6.85526 8.04248 7.25918C7.87517 7.6631 7.8314 8.10756 7.91669 8.53636C8.00198 8.96516 8.21251 9.35904 8.52166 9.66819C8.83081 9.97734 9.22469 10.1879 9.65349 10.2732C10.0823 10.3585 10.5268 10.3147 10.9307 10.1474C11.3346 9.98006 11.6798 9.69673 11.9227 9.33321C12.1656 8.96969 12.2953 8.54231 12.2953 8.10511C12.2953 7.51884 12.0624 6.95659 11.6478 6.54203C11.2333 6.12748 10.671 5.89458 10.0847 5.89458Z" fill="#1D2327"/>
<path d="M16.7163 20.0001H15.2426V16.2106C15.2426 15.6243 15.0097 15.0621 14.5952 14.6475C14.1806 14.2329 13.6183 14.0001 13.0321 14.0001H7.13734C6.55107 14.0001 5.98881 14.2329 5.57426 14.6475C5.1597 15.0621 4.92681 15.6243 4.92681 16.2106V20.0001H3.45312V16.2106C3.45312 15.2335 3.84128 14.2964 4.53221 13.6054C5.22313 12.9145 6.16022 12.5264 7.13734 12.5264H13.0321C14.0092 12.5264 14.9463 12.9145 15.6372 13.6054C16.3281 14.2964 16.7163 15.2335 16.7163 16.2106V20.0001Z" fill="#1D2327"/>
<path d="M18.4001 3.2002L18.4001 8.80019L17.6001 8.80019L17.6001 3.2002L18.4001 3.2002Z" fill="#1D2327"/>
<path d="M15.2 5.59961H20.8V6.39961H15.2V5.59961Z" fill="#1D2327"/>
</svg>
