<svg width="24" height="24" viewBox="0 0 24 24" fill="none" xmlns="http://www.w3.org/2000/svg">
<path fill-rule="evenodd" clip-rule="evenodd" d="M20.5 12C20.5 16.6944 16.6944 20.5 12 20.5C7.30558 20.5 3.5 16.6944 3.5 12C3.5 7.30558 7.30558 3.5 12 3.5C16.6944 3.5 20.5 7.30558 20.5 12ZM22 12C22 17.5228 17.5228 22 12 22C6.47715 22 2 17.5228 2 12C2 6.47715 6.47715 2 12 2C17.5228 2 22 6.47715 22 12ZM13.6667 12.6H16.4444V10.95C16.4444 8.51995 14.4546 6.55 12 6.55C9.5454 6.55 7.55556 8.51995 7.55556 10.95V12.6H10.3333V17H8.66667C8.55161 17 8.43927 16.9885 8.33078 16.9665C7.5713 16.8126 7 16.1474 7 15.35V10.95C7 8.21619 9.23858 6 12 6C14.7614 6 17 8.21619 17 10.95V15.35C17 16.2613 16.2538 17 15.3333 17H13.6667V12.6Z" fill="#1D2327"/>
</svg>
