<svg width="24" height="24" viewBox="0 0 24 24" fill="none" xmlns="http://www.w3.org/2000/svg">
<path fill-rule="evenodd" clip-rule="evenodd" d="M5.10571 18.8944C3.25072 17.0394 3.25072 14.0319 5.10571 12.1769L7.93413 9.34846L8.99479 10.4091L6.16637 13.2375C4.89716 14.5068 4.89716 16.5645 6.16637 17.8337C7.43557 19.1029 9.49336 19.1029 10.7626 17.8337L13.591 15.0053L14.6516 16.066L11.8232 18.8944C9.96823 20.7494 6.9607 20.7494 5.10571 18.8944ZM15.3587 9.70202L9.7019 15.3589L8.64124 14.2982L14.2981 8.64136L15.3587 9.70202ZM10.409 8.99493L13.2374 6.1665C14.5066 4.8973 16.5644 4.89729 17.8336 6.1665C19.1028 7.4357 19.1028 9.49349 17.8336 10.7627L15.0052 13.5911L16.0659 14.6518L18.8943 11.8234C20.7493 9.96836 20.7493 6.96083 18.8943 5.10584C17.0393 3.25085 14.0318 3.25085 12.1768 5.10584L9.34836 7.93427L10.409 8.99493Z" fill="#1D2327"/>
</svg>
