<svg width="24" height="24" viewBox="0 0 24 24" fill="none" xmlns="http://www.w3.org/2000/svg">
<path fill-rule="evenodd" clip-rule="evenodd" d="M3 6C3 5.44772 3.44772 5 4 5H20C20.5523 5 21 5.44772 21 6V20C21 20.5523 20.5523 21 20 21H4C3.44772 21 3 20.5523 3 20V6ZM4.5 19.5V6.5H19.5V19.5H4.5Z" fill="#1D2327"/>
<path d="M12.5072 17.1055L17.1104 13.0526L12.5072 8.99974L11.4936 10.1055L14.0723 12.3026H7.00043V13.8026H14.0723L11.4936 15.9997L12.5072 17.1055Z" fill="#1D2327"/>
<path d="M12 5.01913L11 4H4L3 5V6.48419L15 6.5V5L12 5.01913Z" fill="#1D2327"/>
</svg>
