<svg width="24" height="24" viewBox="0 0 24 24" fill="none" xmlns="http://www.w3.org/2000/svg">
<path fill-rule="evenodd" clip-rule="evenodd" d="M11.801 2.99512C13.5424 2.99512 14.9541 4.40683 14.9541 6.14826V8.13176C14.9541 8.53695 15.3124 8.84856 15.7137 8.79238L17.439 8.55078C19.9512 8.19902 21.9209 10.6691 21.0188 13.04L19.5671 16.8553C19.0747 18.1493 17.8342 19.0045 16.4498 19.0045L5.6153 19.0045C4.51008 19.0045 3.61412 18.1086 3.61412 17.0034V10.9998C3.61412 9.89462 4.51008 8.99866 5.6153 8.99866H9.20538L9.94571 7.51799C10.1447 7.11996 10.2054 6.66695 10.1181 6.23058L9.92797 5.27982C9.69158 4.09786 10.5956 2.99512 11.801 2.99512ZM13.62 6.14826C13.62 5.14364 12.8056 4.32923 11.801 4.32923C11.4375 4.32923 11.1649 4.66176 11.2362 5.01818L11.4263 5.96893C11.5718 6.69622 11.4707 7.45124 11.139 8.11463L10.2847 9.82318V17.6704H16.4498C17.2805 17.6704 18.0248 17.1573 18.3202 16.3809L19.7719 12.5655C20.3132 11.143 19.1313 9.66095 17.624 9.87201L15.8987 10.1136C14.6949 10.2822 13.62 9.34734 13.62 8.13176V6.14826ZM8.95059 10.3328H5.6153C5.24689 10.3328 4.94824 10.6314 4.94824 10.9998V17.0034C4.94824 17.3718 5.24689 17.6704 5.6153 17.6704H8.95059V10.3328Z" fill="#1D2327"/>
</svg>
