<svg width="24" height="24" viewBox="0 0 24 24" fill="none" xmlns="http://www.w3.org/2000/svg">
<path d="M9.9884 5.03456C11.2253 4.67738 12.541 4.65455 13.7989 4.97681C15.3567 5.37591 16.7377 6.28161 17.7244 7.55141C18.7112 8.82122 19.2477 10.3831 19.2497 11.9912C19.2512 13.2727 18.9132 14.5257 18.278 15.6257L18.2504 13.9874L16.7506 14.0126L16.8221 18.262L21.0864 18.1903L21.0612 16.6905L19.3681 16.719C20.2693 15.3119 20.7517 13.671 20.7497 11.9894C20.7473 10.0485 20.0997 8.16354 18.9088 6.63102C17.7179 5.09849 16.0513 4.0054 14.1712 3.52374C12.653 3.13479 11.0651 3.16237 9.57227 3.59344L9.9884 5.03456Z" fill="#1D2327"/>
<path d="M4.82315 10.9729C5.01061 9.66306 5.55164 8.43711 6.37812 7.42215L6.37812 9.05073L7.87812 9.05073L7.87812 4.80069L3.61325 4.8007L3.61325 6.3007L5.36071 6.30069C4.28105 7.5584 3.57537 9.1038 3.33828 10.7603C3.04623 12.8009 3.48398 14.879 4.57435 16.6284C5.66473 18.3778 7.3377 19.686 9.29834 20.3225C11.259 20.959 13.3814 20.8828 15.2913 20.1074L14.7271 18.7176C13.1446 19.36 11.386 19.4231 9.76148 18.8958C8.13696 18.3684 6.75078 17.2844 5.84732 15.835C4.94387 14.3855 4.58117 12.6636 4.82315 10.9729Z" fill="#1D2327"/>
</svg>
