<svg width="24" height="24" viewBox="0 0 24 24" fill="none" xmlns="http://www.w3.org/2000/svg">
<path fill-rule="evenodd" clip-rule="evenodd" d="M4 9C4 9.56989 4.03609 10.0676 4.11168 10.5C4.43405 12.3438 5.47491 13 7.5 13V22H9V13C11.0251 13 12.0659 12.3438 12.3883 10.5C12.4639 10.0676 12.5 9.56989 12.5 9V2H11V9H9V2H7.5V9H5.5V2H4V9ZM10.5726 11.1216C10.6618 11.0224 10.7707 10.8403 10.8563 10.5H5.64371C5.72928 10.8403 5.83823 11.0224 5.92744 11.1216C6.06118 11.2702 6.3967 11.5 7.5 11.5H9C10.1033 11.5 10.4388 11.2702 10.5726 11.1216Z" fill="#1D2327"/>
<path fill-rule="evenodd" clip-rule="evenodd" d="M20 2C19.4775 2 18.9736 2.08029 18.5 2.22241C16.4721 2.83096 15 4.57321 15 6V14H18.5V22H20V2ZM17.4443 4.47622C17.7512 4.21171 18.1088 3.98465 18.5 3.81625V12.5H16.5V6C16.5 5.70897 16.7336 5.08876 17.4443 4.47622Z" fill="#1D2327"/>
</svg>
