<svg width="24" height="24" viewBox="0 0 24 24" fill="#1D2327" xmlns="http://www.w3.org/2000/svg">
	<path fill-rule="evenodd" clip-rule="evenodd" d="M21 10.6V6C21.0024 5.75735 20.9165 5.5221 20.7583 5.33812C20.6001 5.15413 20.3803 5.03396 20.14 5H3.86005C3.61977 5.03396 3.40004 5.15413 3.24181 5.33812C3.08359 5.5221 2.99766 5.75735 3.00005 6V10.6C3.94005 10.6 4.70005 10.6 4.70005 12C4.70005 13.4 4.00005 13.4 3.00005 13.4V18.07C3.014 18.3005 3.10727 18.519 3.26402 18.6885C3.42078 18.858 3.63137 18.9681 3.86005 19H20.14C20.3687 18.9681 20.5793 18.858 20.7361 18.6885C20.8928 18.519 20.9861 18.3005 21 18.07V13.4C20.06 13.4 19.29 13.4 19.29 12C19.29 10.6 20.06 10.6 21 10.6ZM19.5 9.27C19.3431 9.31977 19.1922 9.38685 19.05 9.47C18.6276 9.73496 18.2864 10.1113 18.0641 10.5577C17.8418 11.0041 17.747 11.5032 17.79 12C17.747 12.4968 17.8418 12.9959 18.0641 13.4423C18.2864 13.8887 18.6276 14.265 19.05 14.53C19.1922 14.6131 19.3431 14.6802 19.5 14.73V17.5H4.50005V14.73C4.657 14.6802 4.80793 14.6131 4.95005 14.53C5.37252 14.265 5.71369 13.8887 5.936 13.4423C6.15831 12.9959 6.25314 12.4968 6.21005 12C6.25829 11.508 6.17104 11.0123 5.95777 10.5663C5.74449 10.1204 5.4133 9.74125 5.00005 9.47C4.85929 9.39104 4.7121 9.32413 4.56005 9.27V6.5H19.56L19.5 9.27Z"/>
</svg>
