<svg width="24" height="24" viewBox="0 0 24 24" fill="none" xmlns="http://www.w3.org/2000/svg">
<path fill-rule="evenodd" clip-rule="evenodd" d="M2.5 18.5V5.5H21.5V18.5H2.5ZM1 5C1 4.44772 1.44772 4 2 4H22C22.5523 4 23 4.44772 23 5V19C23 19.5523 22.5523 20 22 20H2C1.44772 20 1 19.5523 1 19V5ZM14.2039 9.09447C14.7106 9.04294 15.2861 9 15.9388 9C17.6049 9 18 9.76437 18 10.8809C18 12.4783 17.1497 12.9421 15.8787 12.9421H15.4321V14.677H14.2039V9.09447ZM15.4321 11.9372H15.8787C16.4455 11.9372 16.789 11.6882 16.789 10.898C16.789 10.3656 16.6173 10.0392 15.9817 10.0306C15.7756 10.0306 15.6038 10.0392 15.4321 10.0564V11.9372ZM9.57279 9.06871C9.2722 10.3226 8.90289 11.7912 8.51641 13.2599C8.06981 11.7912 7.64898 10.3226 7.30544 9.06871H6C6.57543 10.9753 7.14226 12.839 7.76063 14.677H9.29796C9.85621 12.839 10.3629 10.9753 10.8696 9.06871H9.57279ZM11.6966 14.677H12.9676V9.06871H11.6966V14.677Z" fill="#1D2327"/>
</svg>
