<svg width="24" height="24" viewBox="0 0 24 24" fill="none" xmlns="http://www.w3.org/2000/svg">
<path d="M3 21.0859L4.27129 16.4416C3.48681 15.0821 3.0746 13.5411 3.07536 11.9608C3.07762 7.02035 7.09797 3 12.0377 3C14.4348 3.00075 16.685 3.93444 18.3775 5.62848C20.0693 7.32253 21.0008 9.57423 21 11.9691C20.9977 16.9103 16.9774 20.9307 12.0377 20.9307C10.5381 20.9299 9.06029 20.5539 7.75132 19.8395L3 21.0859ZM7.97136 18.217C9.23436 18.9668 10.4401 19.416 12.0347 19.4167C16.1402 19.4167 19.4846 16.0754 19.4868 11.9676C19.4883 7.85154 16.1598 4.51469 12.0407 4.51319C7.93218 4.51319 4.59005 7.85456 4.58855 11.9616C4.58779 13.6383 5.07913 14.8937 5.9043 16.2072L5.15147 18.9563L7.97136 18.217ZM16.5524 14.0995C16.4966 14.006 16.3474 13.9503 16.1228 13.838C15.899 13.7257 14.798 13.1839 14.5923 13.1093C14.3873 13.0347 14.2381 12.997 14.0882 13.2216C13.939 13.4454 13.5094 13.9503 13.379 14.0995C13.2487 14.2487 13.1176 14.2675 12.8937 14.1552C12.6699 14.043 11.948 13.8071 11.0927 13.0437C10.4273 12.4499 9.97739 11.7167 9.84702 11.4921C9.71665 11.2683 9.83346 11.1469 9.94499 11.0354C10.046 10.9352 10.1688 10.7739 10.2811 10.6428C10.3949 10.5132 10.4318 10.4197 10.5072 10.2698C10.5818 10.1206 10.5448 9.98945 10.4883 9.87717C10.4318 9.76564 9.98417 8.66315 9.79804 8.21477C9.61567 7.77845 9.43105 7.83723 9.2939 7.83044L8.86436 7.82291C8.71515 7.82291 8.47249 7.87867 8.26752 8.10324C8.06255 8.32781 7.4838 8.86888 7.4838 9.97136C7.4838 11.0739 8.28636 12.1387 8.39789 12.2879C8.51017 12.4371 9.97664 14.6993 12.2231 15.6692C12.7573 15.8998 13.1748 16.0377 13.4996 16.1409C14.0362 16.3112 14.5245 16.2871 14.9103 16.2298C15.3406 16.1658 16.2351 15.688 16.422 15.165C16.6089 14.6413 16.6089 14.1929 16.5524 14.0995Z" fill="#1D2327"/>
</svg>
