<svg width="24" height="24" viewBox="0 0 24 24" fill="none" xmlns="http://www.w3.org/2000/svg">
<path fill-rule="evenodd" clip-rule="evenodd" d="M12 22C17.5228 22 22 17.5228 22 12C22 6.47715 17.5228 2 12 2C6.47715 2 2 6.47715 2 12C2 17.5228 6.47715 22 12 22ZM19.5019 16C18.0711 18.6779 15.2483 20.5 12 20.5C8.75168 20.5 5.92893 18.6779 4.4981 16H19.5019ZM20.1264 14.5H3.8736C3.63072 13.7096 3.5 12.8701 3.5 12C3.5 10.944 3.69259 9.93288 4.04455 9L19.9554 9C20.3074 9.93288 20.5 10.944 20.5 12C20.5 12.8701 20.3693 13.7096 20.1264 14.5ZM12 3.5C8.95814 3.5 6.28948 5.09785 4.78755 7.5L19.2124 7.5C17.7105 5.09785 15.0419 3.5 12 3.5Z" fill="#1D2327"/>
<path fill-rule="evenodd" clip-rule="evenodd" d="M13.7946 18.514C14.5907 16.9218 15.125 14.6194 15.125 12C15.125 9.38055 14.5907 7.07816 13.7946 5.48602C13.3945 4.68578 12.965 4.13885 12.5839 3.81651C12.2093 3.49961 12.0115 3.49998 12.0002 3.5C11.9889 3.49998 11.7907 3.49961 11.4161 3.81651C11.035 4.13885 10.6055 4.68578 10.2054 5.48602C9.40929 7.07816 8.875 9.38055 8.875 12C8.875 14.6194 9.40929 16.9218 10.2054 18.514C10.6055 19.3142 11.035 19.8612 11.4161 20.1835C11.7907 20.5004 11.9885 20.5 11.9998 20.5C12.0111 20.5 12.2093 20.5004 12.5839 20.1835C12.965 19.8612 13.3945 19.3142 13.7946 18.514ZM12 22C14.7614 22 17 17.5228 17 12C17 6.47715 14.7614 2 12 2C9.23858 2 7 6.47715 7 12C7 17.5228 9.23858 22 12 22Z" fill="#1D2327"/>
</svg>
